<?xml version="1.0" encoding="utf-8"?>
<!-- Generator: Adobe Illustrator 22.0.1, SVG Export Plug-In . SVG Version: 6.00 Build 0)  -->
<svg version="1.1" id="레이어_1" xmlns="http://www.w3.org/2000/svg" xmlns:xlink="http://www.w3.org/1999/xlink" x="0px"
	 y="0px" viewBox="0 0 36 36" style="enable-background:new 0 0 36 36;" xml:space="preserve">
<style type="text/css">
	.st0{fill:#E0DBD5;}
	.st1{fill:#231B10;}
	.st2{fill:#F7DECE;}
	.st3{fill:#D8B7AD;}
	.st4{fill:#D37F7F;}
	.st5{fill:#E1E8ED;}
	.st6{fill:#99AAB5;}
</style>
<path class="st0" d="M35,36v-7c0-3.3-3.7-5.5-7-5.5H16c-3.3,0-7,2.2-7,5.5v7H35z"/>
<path class="st1" d="M22.2,1.6c4.1,0,10.9,2.2,10.9,11.8s0,11.8-2.1,11.8S26.2,23,22.1,23s-6.8,2.2-8.9,2.2c-2.3,0-2.1-8.9-2.1-11.8
	C11.2,3.8,18,1.6,22.2,1.6"/>
<path class="st2" d="M18.3,23.5c0,1.5,2.2,2,3.7,2s3.7-0.5,3.7-2v-3.2h-7.3v3.2H18.3z"/>
<path class="st3" d="M18.3,21.7c1,1.2,2.3,1.5,3.7,1.5c1.4,0,2.6-0.3,3.7-1.5v-2.9h-7.3v2.9H18.3z"/>
<path class="st2" d="M13.7,12.2c0-5.8,3.7-10.6,8.2-10.6s8.2,4.7,8.2,10.6c0,5.8-3.7,10.3-8.2,10.3S13.7,18.1,13.7,12.2"/>
<path class="st4" d="M21.9,20c-1.6,0-2.4-0.8-2.5-0.9c-0.3-0.3-0.3-0.7,0-1s0.7-0.3,1,0c0,0,0.6,0.5,1.6,0.5s1.6-0.5,1.6-0.5
	c0.3-0.3,0.7-0.2,1,0c0.3,0.3,0.3,0.7,0,1C24.4,19.2,23.6,20,21.9,20"/>
<path class="st1" d="M11.7,15.5c0-1,0-0.2,0-0.5c0-3.4,2.1,0.5,2.1-1.9s1.4-2.7,2.7-4.1c0.7-0.7,2.1-2,2.1-2s3.4,2.1,6.2,2.1
	c2.7,0,5.5,1.4,5.5,4.1s2.1-1.6,2.1,1.8c0,0.2,0-0.5,0,0.5h0.7c0-2,0-1.9,0-3.2c0-8.9-6.8-12.2-10.9-12.2S11,3.3,11,12.2
	c0,0.8,0,1.3,0,3.3H11.7z"/>
<path class="st1" d="M18.6,14.4c-0.5,0-0.8-0.4-0.8-0.8v-0.8c0-0.5,0.4-0.8,0.8-0.8s0.8,0.4,0.8,0.8v0.8
	C19.5,14,19.1,14.4,18.6,14.4 M25.4,14.4c-0.5,0-0.8-0.4-0.8-0.8v-0.8c0-0.5,0.4-0.8,0.8-0.8s0.8,0.4,0.8,0.8v0.8
	C26.2,14,25.8,14.4,25.4,14.4"/>
<path class="st3" d="M22.8,17h-1.7c-0.2,0-0.4-0.2-0.4-0.4v-0.2c0-0.2,0.2-0.4,0.4-0.4h1.7c0.2,0,0.4,0.2,0.4,0.4v0.2
	C23.3,16.8,23.1,17,22.8,17"/>
<path class="st2" d="M15.4,13.4c0,1.4-0.7,2.6-1.6,2.6s-1.6-1.2-1.6-2.6s0.7-2.6,1.6-2.6C14.7,10.8,15.4,12,15.4,13.4 M31.8,13.4
	c0,1.4-0.7,2.6-1.6,2.6s-1.6-1.2-1.6-2.6s0.7-2.6,1.6-2.6C31.1,10.8,31.8,12,31.8,13.4"/>
<path class="st5" d="M33,35c0,0.6-0.4,1-1,1H22c-0.6,0-1-0.4-1-1s0.4-1,1-1h10C32.6,34,33,34.4,33,35z"/>
<path class="st5" d="M20.2,22H3.8c-1.5,0-3.5,0.8-2.5,3.5L4.4,34c0,0,0.4,2,2.6,2h20l-4-11.2C22.6,23.4,21.8,22,20.2,22z"/>
<path class="st6" d="M19.2,22H2.8c-1.5,0-3.5,0.8-2.5,3.5L3.4,34c0,0,0.4,2,2.6,2h20l-4-11.2C21.6,23.4,20.8,22,19.2,22z"/>
<path class="st5" d="M14,29.3c0.5,1.6,0.1,3.1-0.9,3.5c-1,0.3-2.3-0.6-2.8-2.2c-0.5-1.6-0.1-3.1,0.9-3.5S13.5,27.7,14,29.3z
	 M19,24.8H3c-0.4,0-0.8-0.3-0.8-0.8s0.3-0.8,0.8-0.8h16c0.4,0,0.8,0.3,0.8,0.8S19.4,24.8,19,24.8z"/>
</svg>
